<?xml version="1.0" encoding="UTF-8"?><svg xmlns="http://www.w3.org/2000/svg" xmlns:xlink="http://www.w3.org/1999/xlink" stroke-dasharray="none" shape-rendering="auto" font-family="'Dialog'" width="1276" text-rendering="auto" fill-opacity="1" contentScriptType="text/ecmascript" color-interpolation="auto" color-rendering="auto" preserveAspectRatio="xMidYMid meet" font-size="12" fill="black" stroke="black" image-rendering="auto" stroke-miterlimit="10" zoomAndPan="magnify" version="1.0" stroke-linecap="square" stroke-linejoin="miter" contentStyleType="text/css" font-style="normal" height="517" stroke-width="1" stroke-dashoffset="0" font-weight="normal" stroke-opacity="1">
<!--Generated by the Batik Graphics2D SVG Generator-->
<defs id="genericDefs"/>
<g>
<defs id="defs1">
<clipPath clipPathUnits="userSpaceOnUse" id="clipPath1">
<path d="M59 59 L1236 59 L1236 464 L59 464 L59 59 Z"/>
</clipPath>
<clipPath clipPathUnits="userSpaceOnUse" id="clipPath2">
<path d="M-1 -1 L1277 -1 L1277 518 L-1 518 L-1 -1 Z"/>
</clipPath>
<clipPath clipPathUnits="userSpaceOnUse" id="clipPath3">
<path d="M412 64 L884 64 L884 102 L412 102 L412 64 Z"/>
</clipPath>
</defs>
<g font-size="15" fill="white" text-rendering="geometricPrecision" font-family="'Ubuntu'" stroke-linejoin="round" stroke="white" stroke-width="0" stroke-miterlimit="0">
<rect x="60" y="60" clip-path="url(#clipPath1)" width="1175" height="403" stroke="none"/>
</g>
<g font-size="15" stroke-linecap="butt" fill="rgb(204,204,204)" text-rendering="geometricPrecision" font-family="'Ubuntu'" stroke-dasharray="3,3" stroke="rgb(204,204,204)">
<line clip-path="url(#clipPath1)" fill="none" x1="60" x2="60" y1="60" y2="463"/>
<line clip-path="url(#clipPath1)" fill="none" x1="169" x2="169" y1="60" y2="463"/>
<line clip-path="url(#clipPath1)" fill="none" x1="279" x2="279" y1="60" y2="463"/>
<line clip-path="url(#clipPath1)" fill="none" x1="389" x2="389" y1="60" y2="463"/>
<line clip-path="url(#clipPath1)" fill="none" x1="499" x2="499" y1="60" y2="463"/>
<line clip-path="url(#clipPath1)" fill="none" x1="609" x2="609" y1="60" y2="463"/>
<line clip-path="url(#clipPath1)" fill="none" x1="719" x2="719" y1="60" y2="463"/>
<line clip-path="url(#clipPath1)" fill="none" x1="829" x2="829" y1="60" y2="463"/>
<line clip-path="url(#clipPath1)" fill="none" x1="938" x2="938" y1="60" y2="463"/>
<line clip-path="url(#clipPath1)" fill="none" x1="1048" x2="1048" y1="60" y2="463"/>
<line clip-path="url(#clipPath1)" fill="none" x1="1158" x2="1158" y1="60" y2="463"/>
<line clip-path="url(#clipPath1)" fill="none" x1="60" x2="1235" y1="463" y2="463"/>
<line clip-path="url(#clipPath1)" fill="none" x1="60" x2="1235" y1="391" y2="391"/>
<line clip-path="url(#clipPath1)" fill="none" x1="60" x2="1235" y1="319" y2="319"/>
<line clip-path="url(#clipPath1)" fill="none" x1="60" x2="1235" y1="247" y2="247"/>
<line clip-path="url(#clipPath1)" fill="none" x1="60" x2="1235" y1="175" y2="175"/>
<line clip-path="url(#clipPath1)" fill="none" x1="60" x2="1235" y1="103" y2="103"/>
<rect x="106" y="446" clip-path="url(#clipPath1)" fill="rgb(0,0,139)" width="5" height="5" stroke="none"/>
<line clip-path="url(#clipPath1)" fill="none" x1="108" x2="425" y1="448" y2="434" stroke-dasharray="none" stroke="rgb(0,0,139)"/>
<rect x="423" y="432" clip-path="url(#clipPath1)" fill="rgb(0,0,139)" width="5" stroke-dasharray="none" height="5" stroke="none"/>
<line clip-path="url(#clipPath1)" fill="none" x1="425" x2="483" y1="434" y2="419" stroke-dasharray="none" stroke="rgb(0,0,139)"/>
<rect x="481" y="417" clip-path="url(#clipPath1)" fill="rgb(0,0,139)" width="5" stroke-dasharray="none" height="5" stroke="none"/>
<line clip-path="url(#clipPath1)" fill="none" x1="483" x2="528" y1="419" y2="405" stroke-dasharray="none" stroke="rgb(0,0,139)"/>
<rect x="526" y="403" clip-path="url(#clipPath1)" fill="rgb(0,0,139)" width="5" stroke-dasharray="none" height="5" stroke="none"/>
<line clip-path="url(#clipPath1)" fill="none" x1="528" x2="545" y1="405" y2="391" stroke-dasharray="none" stroke="rgb(0,0,139)"/>
<rect x="543" y="389" clip-path="url(#clipPath1)" fill="rgb(0,0,139)" width="5" stroke-dasharray="none" height="5" stroke="none"/>
<line clip-path="url(#clipPath1)" fill="none" x1="545" x2="552" y1="391" y2="405" stroke-dasharray="none" stroke="rgb(0,0,139)"/>
<rect x="550" y="403" clip-path="url(#clipPath1)" fill="rgb(0,0,139)" width="5" stroke-dasharray="none" height="5" stroke="none"/>
<line clip-path="url(#clipPath1)" fill="none" x1="552" x2="635" y1="405" y2="391" stroke-dasharray="none" stroke="rgb(0,0,139)"/>
<rect x="633" y="389" clip-path="url(#clipPath1)" fill="rgb(0,0,139)" width="5" stroke-dasharray="none" height="5" stroke="none"/>
<line clip-path="url(#clipPath1)" fill="none" x1="635" x2="642" y1="391" y2="376" stroke-dasharray="none" stroke="rgb(0,0,139)"/>
<rect x="640" y="374" clip-path="url(#clipPath1)" fill="rgb(0,0,139)" width="5" stroke-dasharray="none" height="5" stroke="none"/>
<line clip-path="url(#clipPath1)" fill="none" x1="642" x2="652" y1="376" y2="362" stroke-dasharray="none" stroke="rgb(0,0,139)"/>
<rect x="650" y="360" clip-path="url(#clipPath1)" fill="rgb(0,0,139)" width="5" stroke-dasharray="none" height="5" stroke="none"/>
<line clip-path="url(#clipPath1)" fill="none" x1="652" x2="666" y1="362" y2="376" stroke-dasharray="none" stroke="rgb(0,0,139)"/>
<rect x="664" y="374" clip-path="url(#clipPath1)" fill="rgb(0,0,139)" width="5" stroke-dasharray="none" height="5" stroke="none"/>
<line clip-path="url(#clipPath1)" fill="none" x1="666" x2="667" y1="376" y2="362" stroke-dasharray="none" stroke="rgb(0,0,139)"/>
<rect x="665" y="360" clip-path="url(#clipPath1)" fill="rgb(0,0,139)" width="5" stroke-dasharray="none" height="5" stroke="none"/>
<line clip-path="url(#clipPath1)" fill="none" x1="667" x2="668" y1="362" y2="376" stroke-dasharray="none" stroke="rgb(0,0,139)"/>
<rect x="666" y="374" clip-path="url(#clipPath1)" fill="rgb(0,0,139)" width="5" stroke-dasharray="none" height="5" stroke="none"/>
<line clip-path="url(#clipPath1)" fill="none" x1="668" x2="700" y1="376" y2="362" stroke-dasharray="none" stroke="rgb(0,0,139)"/>
<rect x="698" y="360" clip-path="url(#clipPath1)" fill="rgb(0,0,139)" width="5" stroke-dasharray="none" height="5" stroke="none"/>
<line clip-path="url(#clipPath1)" fill="none" x1="700" x2="743" y1="362" y2="347" stroke-dasharray="none" stroke="rgb(0,0,139)"/>
<rect x="741" y="345" clip-path="url(#clipPath1)" fill="rgb(0,0,139)" width="5" stroke-dasharray="none" height="5" stroke="none"/>
</g>
<g font-size="15" stroke-linecap="butt" fill="rgb(0,0,139)" text-rendering="geometricPrecision" font-family="'Ubuntu'" shape-rendering="crispEdges" stroke="rgb(0,0,139)">
<line clip-path="url(#clipPath1)" fill="none" x1="743" x2="743" y1="347" y2="333"/>
<rect x="741" y="331" clip-path="url(#clipPath1)" width="5" shape-rendering="auto" height="5" stroke="none"/>
<line clip-path="url(#clipPath1)" fill="none" x1="743" x2="763" y1="333" y2="319" shape-rendering="auto"/>
<rect x="761" y="317" clip-path="url(#clipPath1)" width="5" shape-rendering="auto" height="5" stroke="none"/>
<line clip-path="url(#clipPath1)" fill="none" x1="763" x2="774" y1="319" y2="304" shape-rendering="auto"/>
<rect x="772" y="302" clip-path="url(#clipPath1)" width="5" shape-rendering="auto" height="5" stroke="none"/>
<line clip-path="url(#clipPath1)" fill="none" x1="774" x2="802" y1="304" y2="290" shape-rendering="auto"/>
<rect x="800" y="288" clip-path="url(#clipPath1)" width="5" shape-rendering="auto" height="5" stroke="none"/>
<line clip-path="url(#clipPath1)" fill="none" x1="802" x2="805" y1="290" y2="275" shape-rendering="auto"/>
<rect x="803" y="273" clip-path="url(#clipPath1)" width="5" shape-rendering="auto" height="5" stroke="none"/>
<line clip-path="url(#clipPath1)" fill="none" x1="805" x2="815" y1="275" y2="261" shape-rendering="auto"/>
<rect x="813" y="259" clip-path="url(#clipPath1)" width="5" shape-rendering="auto" height="5" stroke="none"/>
<line clip-path="url(#clipPath1)" fill="none" x1="815" x2="844" y1="261" y2="275" shape-rendering="auto"/>
<rect x="842" y="273" clip-path="url(#clipPath1)" width="5" shape-rendering="auto" height="5" stroke="none"/>
<line clip-path="url(#clipPath1)" fill="none" x1="844" x2="857" y1="275" y2="290" shape-rendering="auto"/>
<rect x="855" y="288" clip-path="url(#clipPath1)" width="5" shape-rendering="auto" height="5" stroke="none"/>
<line clip-path="url(#clipPath1)" fill="none" x1="857" x2="863" y1="290" y2="275" shape-rendering="auto"/>
<rect x="861" y="273" clip-path="url(#clipPath1)" width="5" shape-rendering="auto" height="5" stroke="none"/>
<line clip-path="url(#clipPath1)" fill="none" x1="863" x2="868" y1="275" y2="290" shape-rendering="auto"/>
<rect x="866" y="288" clip-path="url(#clipPath1)" width="5" shape-rendering="auto" height="5" stroke="none"/>
<line clip-path="url(#clipPath1)" fill="none" x1="868" x2="890" y1="290" y2="304" shape-rendering="auto"/>
<rect x="888" y="302" clip-path="url(#clipPath1)" width="5" shape-rendering="auto" height="5" stroke="none"/>
<line clip-path="url(#clipPath1)" fill="none" x1="890" x2="892" y1="304" y2="290" shape-rendering="auto"/>
<rect x="890" y="288" clip-path="url(#clipPath1)" width="5" shape-rendering="auto" height="5" stroke="none"/>
<line clip-path="url(#clipPath1)" fill="none" x1="892" x2="899" y1="290" y2="304" shape-rendering="auto"/>
<rect x="897" y="302" clip-path="url(#clipPath1)" width="5" shape-rendering="auto" height="5" stroke="none"/>
<line clip-path="url(#clipPath1)" fill="none" x1="899" x2="902" y1="304" y2="290" shape-rendering="auto"/>
<rect x="900" y="288" clip-path="url(#clipPath1)" width="5" shape-rendering="auto" height="5" stroke="none"/>
<line clip-path="url(#clipPath1)" fill="none" x1="902" x2="907" y1="290" y2="275" shape-rendering="auto"/>
<rect x="905" y="273" clip-path="url(#clipPath1)" width="5" shape-rendering="auto" height="5" stroke="none"/>
<line clip-path="url(#clipPath1)" fill="none" x1="907" x2="915" y1="275" y2="290" shape-rendering="auto"/>
<rect x="913" y="288" clip-path="url(#clipPath1)" width="5" shape-rendering="auto" height="5" stroke="none"/>
<line clip-path="url(#clipPath1)" fill="none" x1="915" x2="958" y1="290" y2="304" shape-rendering="auto"/>
<rect x="956" y="302" clip-path="url(#clipPath1)" width="5" shape-rendering="auto" height="5" stroke="none"/>
<line clip-path="url(#clipPath1)" fill="none" x1="958" x2="965" y1="304" y2="319" shape-rendering="auto"/>
<rect x="963" y="317" clip-path="url(#clipPath1)" width="5" shape-rendering="auto" height="5" stroke="none"/>
<line clip-path="url(#clipPath1)" fill="none" x1="965" x2="974" y1="319" y2="333" shape-rendering="auto"/>
<rect x="972" y="331" clip-path="url(#clipPath1)" width="5" shape-rendering="auto" height="5" stroke="none"/>
<line clip-path="url(#clipPath1)" fill="none" x1="974" x2="978" y1="333" y2="347" shape-rendering="auto"/>
<rect x="976" y="345" clip-path="url(#clipPath1)" width="5" shape-rendering="auto" height="5" stroke="none"/>
<line clip-path="url(#clipPath1)" fill="none" x1="978" x2="1011" y1="347" y2="362" shape-rendering="auto"/>
<rect x="1009" y="360" clip-path="url(#clipPath1)" width="5" shape-rendering="auto" height="5" stroke="none"/>
<line clip-path="url(#clipPath1)" fill="none" x1="1011" x2="1018" y1="362" y2="376" shape-rendering="auto"/>
<rect x="1016" y="374" clip-path="url(#clipPath1)" width="5" shape-rendering="auto" height="5" stroke="none"/>
<line clip-path="url(#clipPath1)" fill="none" x1="1018" x2="1035" y1="376" y2="391" shape-rendering="auto"/>
<rect x="1033" y="389" clip-path="url(#clipPath1)" width="5" shape-rendering="auto" height="5" stroke="none"/>
<line clip-path="url(#clipPath1)" fill="none" x1="1035" x2="1040" y1="391" y2="405" shape-rendering="auto"/>
<rect x="1038" y="403" clip-path="url(#clipPath1)" width="5" shape-rendering="auto" height="5" stroke="none"/>
<line clip-path="url(#clipPath1)" fill="none" x1="1040" x2="1057" y1="405" y2="419" shape-rendering="auto"/>
<rect x="1055" y="417" clip-path="url(#clipPath1)" width="5" shape-rendering="auto" height="5" stroke="none"/>
<line clip-path="url(#clipPath1)" fill="none" x1="1057" x2="1077" y1="419" y2="434" shape-rendering="auto"/>
<rect x="1075" y="432" clip-path="url(#clipPath1)" width="5" shape-rendering="auto" height="5" stroke="none"/>
<line clip-path="url(#clipPath1)" fill="none" x1="1077" x2="1095" y1="434" y2="448" shape-rendering="auto"/>
<rect x="1093" y="446" clip-path="url(#clipPath1)" width="5" shape-rendering="auto" height="5" stroke="none"/>
<line clip-path="url(#clipPath1)" fill="none" x1="1095" x2="1220" y1="448" y2="463" shape-rendering="auto"/>
<rect x="1218" y="461" clip-path="url(#clipPath1)" width="5" shape-rendering="auto" height="5" stroke="none"/>
<circle clip-path="url(#clipPath1)" fill="rgb(238,0,0)" shape-rendering="auto" r="2" cx="108" cy="448" stroke="none"/>
<line clip-path="url(#clipPath1)" fill="none" x1="108" x2="425" y1="448" y2="434" shape-rendering="auto" stroke="rgb(238,0,0)"/>
<circle clip-path="url(#clipPath1)" fill="rgb(238,0,0)" shape-rendering="auto" r="2" cx="425" cy="434" stroke="none"/>
<line clip-path="url(#clipPath1)" fill="none" x1="425" x2="483" y1="434" y2="419" shape-rendering="auto" stroke="rgb(238,0,0)"/>
<circle clip-path="url(#clipPath1)" fill="rgb(238,0,0)" shape-rendering="auto" r="2" cx="483" cy="419" stroke="none"/>
<line clip-path="url(#clipPath1)" fill="none" x1="483" x2="528" y1="419" y2="405" shape-rendering="auto" stroke="rgb(238,0,0)"/>
<circle clip-path="url(#clipPath1)" fill="rgb(238,0,0)" shape-rendering="auto" r="2" cx="528" cy="405" stroke="none"/>
<line clip-path="url(#clipPath1)" fill="none" x1="528" x2="545" y1="405" y2="391" shape-rendering="auto" stroke="rgb(238,0,0)"/>
<circle clip-path="url(#clipPath1)" fill="rgb(238,0,0)" shape-rendering="auto" r="2" cx="545" cy="391" stroke="none"/>
<line clip-path="url(#clipPath1)" fill="none" x1="545" x2="635" y1="391" y2="376" shape-rendering="auto" stroke="rgb(238,0,0)"/>
<circle clip-path="url(#clipPath1)" fill="rgb(238,0,0)" shape-rendering="auto" r="2" cx="635" cy="376" stroke="none"/>
<line clip-path="url(#clipPath1)" fill="none" x1="635" x2="642" y1="376" y2="362" shape-rendering="auto" stroke="rgb(238,0,0)"/>
<circle clip-path="url(#clipPath1)" fill="rgb(238,0,0)" shape-rendering="auto" r="2" cx="642" cy="362" stroke="none"/>
<line clip-path="url(#clipPath1)" fill="none" x1="642" x2="652" y1="362" y2="347" shape-rendering="auto" stroke="rgb(238,0,0)"/>
<circle clip-path="url(#clipPath1)" fill="rgb(238,0,0)" shape-rendering="auto" r="2" cx="652" cy="347" stroke="none"/>
<line clip-path="url(#clipPath1)" fill="none" x1="652" x2="667" y1="347" y2="333" shape-rendering="auto" stroke="rgb(238,0,0)"/>
<circle clip-path="url(#clipPath1)" fill="rgb(238,0,0)" shape-rendering="auto" r="2" cx="667" cy="333" stroke="none"/>
<line clip-path="url(#clipPath1)" fill="none" x1="667" x2="700" y1="333" y2="319" shape-rendering="auto" stroke="rgb(238,0,0)"/>
<circle clip-path="url(#clipPath1)" fill="rgb(238,0,0)" shape-rendering="auto" r="2" cx="700" cy="319" stroke="none"/>
<line clip-path="url(#clipPath1)" fill="none" x1="700" x2="743" y1="319" y2="304" shape-rendering="auto" stroke="rgb(238,0,0)"/>
<circle clip-path="url(#clipPath1)" fill="rgb(238,0,0)" shape-rendering="auto" r="2" cx="743" cy="304" stroke="none"/>
<line clip-path="url(#clipPath1)" fill="none" x1="743" x2="743" y1="304" y2="290" stroke="rgb(238,0,0)"/>
<circle clip-path="url(#clipPath1)" fill="rgb(238,0,0)" shape-rendering="auto" r="2" cx="743" cy="290" stroke="none"/>
<line clip-path="url(#clipPath1)" fill="none" x1="743" x2="763" y1="290" y2="275" shape-rendering="auto" stroke="rgb(238,0,0)"/>
<circle clip-path="url(#clipPath1)" fill="rgb(238,0,0)" shape-rendering="auto" r="2" cx="763" cy="275" stroke="none"/>
<line clip-path="url(#clipPath1)" fill="none" x1="763" x2="774" y1="275" y2="261" shape-rendering="auto" stroke="rgb(238,0,0)"/>
<circle clip-path="url(#clipPath1)" fill="rgb(238,0,0)" shape-rendering="auto" r="2" cx="774" cy="261" stroke="none"/>
<line clip-path="url(#clipPath1)" fill="none" x1="774" x2="802" y1="261" y2="247" shape-rendering="auto" stroke="rgb(238,0,0)"/>
<circle clip-path="url(#clipPath1)" fill="rgb(238,0,0)" shape-rendering="auto" r="2" cx="802" cy="247" stroke="none"/>
<line clip-path="url(#clipPath1)" fill="none" x1="802" x2="805" y1="247" y2="232" shape-rendering="auto" stroke="rgb(238,0,0)"/>
<circle clip-path="url(#clipPath1)" fill="rgb(238,0,0)" shape-rendering="auto" r="2" cx="805" cy="232" stroke="none"/>
<line clip-path="url(#clipPath1)" fill="none" x1="805" x2="815" y1="232" y2="218" shape-rendering="auto" stroke="rgb(238,0,0)"/>
<circle clip-path="url(#clipPath1)" fill="rgb(238,0,0)" shape-rendering="auto" r="2" cx="815" cy="218" stroke="none"/>
<line clip-path="url(#clipPath1)" fill="none" x1="815" x2="863" y1="218" y2="203" shape-rendering="auto" stroke="rgb(238,0,0)"/>
<circle clip-path="url(#clipPath1)" fill="rgb(238,0,0)" shape-rendering="auto" r="2" cx="863" cy="203" stroke="none"/>
<line clip-path="url(#clipPath1)" fill="none" x1="863" x2="892" y1="203" y2="189" shape-rendering="auto" stroke="rgb(238,0,0)"/>
<circle clip-path="url(#clipPath1)" fill="rgb(238,0,0)" shape-rendering="auto" r="2" cx="892" cy="189" stroke="none"/>
<line clip-path="url(#clipPath1)" fill="none" x1="892" x2="902" y1="189" y2="175" shape-rendering="auto" stroke="rgb(238,0,0)"/>
<circle clip-path="url(#clipPath1)" fill="rgb(238,0,0)" shape-rendering="auto" r="2" cx="902" cy="175" stroke="none"/>
<line clip-path="url(#clipPath1)" fill="none" x1="902" x2="907" y1="175" y2="160" shape-rendering="auto" stroke="rgb(238,0,0)"/>
<circle clip-path="url(#clipPath1)" fill="rgb(238,0,0)" shape-rendering="auto" r="2" cx="907" cy="160" stroke="none"/>
<polygon fill="rgb(0,100,0)" shape-rendering="auto" clip-path="url(#clipPath1)" points=" 552 445 555 450 549 450 552 445" stroke="none"/>
<line clip-path="url(#clipPath1)" fill="none" x1="552" x2="666" y1="448" y2="434" shape-rendering="auto" stroke="rgb(0,100,0)"/>
<polygon fill="rgb(0,100,0)" shape-rendering="auto" clip-path="url(#clipPath1)" points=" 666 431 669 436 663 436 666 431" stroke="none"/>
<line clip-path="url(#clipPath1)" fill="none" x1="666" x2="668" y1="434" y2="419" shape-rendering="auto" stroke="rgb(0,100,0)"/>
<polygon fill="rgb(0,100,0)" shape-rendering="auto" clip-path="url(#clipPath1)" points=" 668 416 671 421 665 421 668 416" stroke="none"/>
<line clip-path="url(#clipPath1)" fill="none" x1="668" x2="844" y1="419" y2="405" shape-rendering="auto" stroke="rgb(0,100,0)"/>
<polygon fill="rgb(0,100,0)" shape-rendering="auto" clip-path="url(#clipPath1)" points=" 844 402 847 407 841 407 844 402" stroke="none"/>
<line clip-path="url(#clipPath1)" fill="none" x1="844" x2="857" y1="405" y2="391" shape-rendering="auto" stroke="rgb(0,100,0)"/>
<polygon fill="rgb(0,100,0)" shape-rendering="auto" clip-path="url(#clipPath1)" points=" 857 388 860 393 854 393 857 388" stroke="none"/>
<line clip-path="url(#clipPath1)" fill="none" x1="857" x2="868" y1="391" y2="376" shape-rendering="auto" stroke="rgb(0,100,0)"/>
<polygon fill="rgb(0,100,0)" shape-rendering="auto" clip-path="url(#clipPath1)" points=" 868 373 871 378 865 378 868 373" stroke="none"/>
<line clip-path="url(#clipPath1)" fill="none" x1="868" x2="890" y1="376" y2="362" shape-rendering="auto" stroke="rgb(0,100,0)"/>
<polygon fill="rgb(0,100,0)" shape-rendering="auto" clip-path="url(#clipPath1)" points=" 890 359 893 364 887 364 890 359" stroke="none"/>
<line clip-path="url(#clipPath1)" fill="none" x1="890" x2="899" y1="362" y2="347" shape-rendering="auto" stroke="rgb(0,100,0)"/>
<polygon fill="rgb(0,100,0)" shape-rendering="auto" clip-path="url(#clipPath1)" points=" 899 344 902 349 896 349 899 344" stroke="none"/>
<line clip-path="url(#clipPath1)" fill="none" x1="899" x2="915" y1="347" y2="333" shape-rendering="auto" stroke="rgb(0,100,0)"/>
<polygon fill="rgb(0,100,0)" shape-rendering="auto" clip-path="url(#clipPath1)" points=" 915 330 918 335 912 335 915 330" stroke="none"/>
<line clip-path="url(#clipPath1)" fill="none" x1="915" x2="958" y1="333" y2="319" shape-rendering="auto" stroke="rgb(0,100,0)"/>
<polygon fill="rgb(0,100,0)" shape-rendering="auto" clip-path="url(#clipPath1)" points=" 958 316 961 321 955 321 958 316" stroke="none"/>
<line clip-path="url(#clipPath1)" fill="none" x1="958" x2="965" y1="319" y2="304" shape-rendering="auto" stroke="rgb(0,100,0)"/>
<polygon fill="rgb(0,100,0)" shape-rendering="auto" clip-path="url(#clipPath1)" points=" 965 301 968 306 962 306 965 301" stroke="none"/>
<line clip-path="url(#clipPath1)" fill="none" x1="965" x2="974" y1="304" y2="290" shape-rendering="auto" stroke="rgb(0,100,0)"/>
<polygon fill="rgb(0,100,0)" shape-rendering="auto" clip-path="url(#clipPath1)" points=" 974 287 977 292 971 292 974 287" stroke="none"/>
<line clip-path="url(#clipPath1)" fill="none" x1="974" x2="978" y1="290" y2="275" shape-rendering="auto" stroke="rgb(0,100,0)"/>
<polygon fill="rgb(0,100,0)" shape-rendering="auto" clip-path="url(#clipPath1)" points=" 978 272 981 277 975 277 978 272" stroke="none"/>
<line clip-path="url(#clipPath1)" fill="none" x1="978" x2="1011" y1="275" y2="261" shape-rendering="auto" stroke="rgb(0,100,0)"/>
<polygon fill="rgb(0,100,0)" shape-rendering="auto" clip-path="url(#clipPath1)" points=" 1011 258 1014 263 1008 263 1011 258" stroke="none"/>
<line clip-path="url(#clipPath1)" fill="none" x1="1011" x2="1018" y1="261" y2="247" shape-rendering="auto" stroke="rgb(0,100,0)"/>
<polygon fill="rgb(0,100,0)" shape-rendering="auto" clip-path="url(#clipPath1)" points=" 1018 244 1021 249 1015 249 1018 244" stroke="none"/>
<line clip-path="url(#clipPath1)" fill="none" x1="1018" x2="1035" y1="247" y2="232" shape-rendering="auto" stroke="rgb(0,100,0)"/>
<polygon fill="rgb(0,100,0)" shape-rendering="auto" clip-path="url(#clipPath1)" points=" 1035 229 1038 234 1032 234 1035 229" stroke="none"/>
<line clip-path="url(#clipPath1)" fill="none" x1="1035" x2="1040" y1="232" y2="218" shape-rendering="auto" stroke="rgb(0,100,0)"/>
<polygon fill="rgb(0,100,0)" shape-rendering="auto" clip-path="url(#clipPath1)" points=" 1040 215 1043 220 1037 220 1040 215" stroke="none"/>
<line clip-path="url(#clipPath1)" fill="none" x1="1040" x2="1057" y1="218" y2="203" shape-rendering="auto" stroke="rgb(0,100,0)"/>
<polygon fill="rgb(0,100,0)" shape-rendering="auto" clip-path="url(#clipPath1)" points=" 1057 200 1060 205 1054 205 1057 200" stroke="none"/>
<line clip-path="url(#clipPath1)" fill="none" x1="1057" x2="1077" y1="203" y2="189" shape-rendering="auto" stroke="rgb(0,100,0)"/>
<polygon fill="rgb(0,100,0)" shape-rendering="auto" clip-path="url(#clipPath1)" points=" 1077 186 1080 191 1074 191 1077 186" stroke="none"/>
<line clip-path="url(#clipPath1)" fill="none" x1="1077" x2="1095" y1="189" y2="175" shape-rendering="auto" stroke="rgb(0,100,0)"/>
<polygon fill="rgb(0,100,0)" shape-rendering="auto" clip-path="url(#clipPath1)" points=" 1095 172 1098 177 1092 177 1095 172" stroke="none"/>
<line clip-path="url(#clipPath1)" fill="none" x1="1095" x2="1220" y1="175" y2="160" shape-rendering="auto" stroke="rgb(0,100,0)"/>
<polygon fill="rgb(0,100,0)" shape-rendering="auto" clip-path="url(#clipPath1)" points=" 1220 157 1223 162 1217 162 1220 157" stroke="none"/>
<rect x="60" y="60" clip-path="url(#clipPath2)" fill="none" width="1175" shape-rendering="auto" height="403" stroke="black"/>
</g>
<g text-rendering="geometricPrecision" font-size="21" font-family="'Arial'" stroke-linecap="butt">
<text xml:space="preserve" x="521" y="20" clip-path="url(#clipPath2)" stroke="none">Information life evolution</text>
<rect x="413" y="65" clip-path="url(#clipPath3)" fill="white" width="469" height="35" stroke="none"/>
<line clip-path="url(#clipPath3)" fill="none" x1="419" x2="433" y1="82" y2="82" stroke="rgb(0,0,139)"/>
<rect x="423" y="79" clip-path="url(#clipPath3)" fill="rgb(0,0,139)" width="7" height="7" stroke="none"/>
<text xml:space="preserve" x="435" y="90" clip-path="url(#clipPath3)" stroke="none">     Copies     </text>
<line clip-path="url(#clipPath3)" fill="none" x1="573" x2="587" y1="82" y2="82" stroke="rgb(238,0,0)"/>
<circle clip-path="url(#clipPath3)" fill="rgb(238,0,0)" r="3" cx="580" cy="82" stroke="none"/>
<text xml:space="preserve" x="589" y="90" clip-path="url(#clipPath3)" stroke="none">     "Infected"  </text>
<line clip-path="url(#clipPath3)" fill="none" x1="735" x2="749" y1="82" y2="82" stroke="rgb(0,100,0)"/>
<polygon fill="rgb(0,100,0)" clip-path="url(#clipPath3)" points=" 742 77 747 85 737 85 742 77" stroke="none"/>
<text xml:space="preserve" x="751" y="90" clip-path="url(#clipPath3)" stroke="none">     "Healed"  </text>
<line clip-path="url(#clipPath2)" fill="none" x1="60" x2="1235" y1="58" y2="58"/>
<line clip-path="url(#clipPath2)" fill="none" x1="60" x2="1235" y1="465" y2="465"/>
<text font-size="16" x="633" y="513" clip-path="url(#clipPath2)" stroke="none" xml:space="preserve">Time</text>
<line clip-path="url(#clipPath2)" fill="none" x1="60" x2="60" y1="54" y2="58"/>
<line clip-path="url(#clipPath2)" fill="none" x1="60" x2="60" y1="469" y2="465"/>
<text xml:space="preserve" x="56" y="48" clip-path="url(#clipPath2)" stroke="none">0</text>
<text xml:space="preserve" x="56" y="490" clip-path="url(#clipPath2)" stroke="none">0</text>
<line clip-path="url(#clipPath2)" fill="none" x1="81" x2="81" y1="56" y2="58"/>
<line clip-path="url(#clipPath2)" fill="none" x1="81" x2="81" y1="467" y2="465"/>
<line clip-path="url(#clipPath2)" fill="none" x1="103" x2="103" y1="56" y2="58"/>
<line clip-path="url(#clipPath2)" fill="none" x1="103" x2="103" y1="467" y2="465"/>
<line clip-path="url(#clipPath2)" fill="none" x1="125" x2="125" y1="56" y2="58"/>
<line clip-path="url(#clipPath2)" fill="none" x1="125" x2="125" y1="467" y2="465"/>
<line clip-path="url(#clipPath2)" fill="none" x1="147" x2="147" y1="56" y2="58"/>
<line clip-path="url(#clipPath2)" fill="none" x1="147" x2="147" y1="467" y2="465"/>
<line clip-path="url(#clipPath2)" fill="none" x1="169" x2="169" y1="54" y2="58"/>
<line clip-path="url(#clipPath2)" fill="none" x1="169" x2="169" y1="469" y2="465"/>
<text xml:space="preserve" x="160" y="48" clip-path="url(#clipPath2)" stroke="none">50</text>
<text xml:space="preserve" x="160" y="490" clip-path="url(#clipPath2)" stroke="none">50</text>
<line clip-path="url(#clipPath2)" fill="none" x1="191" x2="191" y1="56" y2="58"/>
<line clip-path="url(#clipPath2)" fill="none" x1="191" x2="191" y1="467" y2="465"/>
<line clip-path="url(#clipPath2)" fill="none" x1="213" x2="213" y1="56" y2="58"/>
<line clip-path="url(#clipPath2)" fill="none" x1="213" x2="213" y1="467" y2="465"/>
<line clip-path="url(#clipPath2)" fill="none" x1="235" x2="235" y1="56" y2="58"/>
<line clip-path="url(#clipPath2)" fill="none" x1="235" x2="235" y1="467" y2="465"/>
<line clip-path="url(#clipPath2)" fill="none" x1="257" x2="257" y1="56" y2="58"/>
<line clip-path="url(#clipPath2)" fill="none" x1="257" x2="257" y1="467" y2="465"/>
<line clip-path="url(#clipPath2)" fill="none" x1="279" x2="279" y1="54" y2="58"/>
<line clip-path="url(#clipPath2)" fill="none" x1="279" x2="279" y1="469" y2="465"/>
<text xml:space="preserve" x="265" y="48" clip-path="url(#clipPath2)" stroke="none">100</text>
<text xml:space="preserve" x="265" y="490" clip-path="url(#clipPath2)" stroke="none">100</text>
<line clip-path="url(#clipPath2)" fill="none" x1="301" x2="301" y1="56" y2="58"/>
<line clip-path="url(#clipPath2)" fill="none" x1="301" x2="301" y1="467" y2="465"/>
<line clip-path="url(#clipPath2)" fill="none" x1="323" x2="323" y1="56" y2="58"/>
<line clip-path="url(#clipPath2)" fill="none" x1="323" x2="323" y1="467" y2="465"/>
<line clip-path="url(#clipPath2)" fill="none" x1="345" x2="345" y1="56" y2="58"/>
<line clip-path="url(#clipPath2)" fill="none" x1="345" x2="345" y1="467" y2="465"/>
<line clip-path="url(#clipPath2)" fill="none" x1="367" x2="367" y1="56" y2="58"/>
<line clip-path="url(#clipPath2)" fill="none" x1="367" x2="367" y1="467" y2="465"/>
<line clip-path="url(#clipPath2)" fill="none" x1="389" x2="389" y1="54" y2="58"/>
<line clip-path="url(#clipPath2)" fill="none" x1="389" x2="389" y1="469" y2="465"/>
<text xml:space="preserve" x="375" y="48" clip-path="url(#clipPath2)" stroke="none">150</text>
<text xml:space="preserve" x="375" y="490" clip-path="url(#clipPath2)" stroke="none">150</text>
<line clip-path="url(#clipPath2)" fill="none" x1="411" x2="411" y1="56" y2="58"/>
<line clip-path="url(#clipPath2)" fill="none" x1="411" x2="411" y1="467" y2="465"/>
<line clip-path="url(#clipPath2)" fill="none" x1="433" x2="433" y1="56" y2="58"/>
<line clip-path="url(#clipPath2)" fill="none" x1="433" x2="433" y1="467" y2="465"/>
<line clip-path="url(#clipPath2)" fill="none" x1="455" x2="455" y1="56" y2="58"/>
<line clip-path="url(#clipPath2)" fill="none" x1="455" x2="455" y1="467" y2="465"/>
<line clip-path="url(#clipPath2)" fill="none" x1="477" x2="477" y1="56" y2="58"/>
<line clip-path="url(#clipPath2)" fill="none" x1="477" x2="477" y1="467" y2="465"/>
<line clip-path="url(#clipPath2)" fill="none" x1="499" x2="499" y1="54" y2="58"/>
<line clip-path="url(#clipPath2)" fill="none" x1="499" x2="499" y1="469" y2="465"/>
<text xml:space="preserve" x="485" y="48" clip-path="url(#clipPath2)" stroke="none">200</text>
<text xml:space="preserve" x="485" y="490" clip-path="url(#clipPath2)" stroke="none">200</text>
<line clip-path="url(#clipPath2)" fill="none" x1="521" x2="521" y1="56" y2="58"/>
<line clip-path="url(#clipPath2)" fill="none" x1="521" x2="521" y1="467" y2="465"/>
<line clip-path="url(#clipPath2)" fill="none" x1="543" x2="543" y1="56" y2="58"/>
<line clip-path="url(#clipPath2)" fill="none" x1="543" x2="543" y1="467" y2="465"/>
<line clip-path="url(#clipPath2)" fill="none" x1="565" x2="565" y1="56" y2="58"/>
<line clip-path="url(#clipPath2)" fill="none" x1="565" x2="565" y1="467" y2="465"/>
<line clip-path="url(#clipPath2)" fill="none" x1="587" x2="587" y1="56" y2="58"/>
<line clip-path="url(#clipPath2)" fill="none" x1="587" x2="587" y1="467" y2="465"/>
<line clip-path="url(#clipPath2)" fill="none" x1="609" x2="609" y1="54" y2="58"/>
<line clip-path="url(#clipPath2)" fill="none" x1="609" x2="609" y1="469" y2="465"/>
<text xml:space="preserve" x="595" y="48" clip-path="url(#clipPath2)" stroke="none">250</text>
<text xml:space="preserve" x="595" y="490" clip-path="url(#clipPath2)" stroke="none">250</text>
<line clip-path="url(#clipPath2)" fill="none" x1="631" x2="631" y1="56" y2="58"/>
<line clip-path="url(#clipPath2)" fill="none" x1="631" x2="631" y1="467" y2="465"/>
<line clip-path="url(#clipPath2)" fill="none" x1="653" x2="653" y1="56" y2="58"/>
<line clip-path="url(#clipPath2)" fill="none" x1="653" x2="653" y1="467" y2="465"/>
<line clip-path="url(#clipPath2)" fill="none" x1="675" x2="675" y1="56" y2="58"/>
<line clip-path="url(#clipPath2)" fill="none" x1="675" x2="675" y1="467" y2="465"/>
<line clip-path="url(#clipPath2)" fill="none" x1="697" x2="697" y1="56" y2="58"/>
<line clip-path="url(#clipPath2)" fill="none" x1="697" x2="697" y1="467" y2="465"/>
<line clip-path="url(#clipPath2)" fill="none" x1="719" x2="719" y1="54" y2="58"/>
<line clip-path="url(#clipPath2)" fill="none" x1="719" x2="719" y1="469" y2="465"/>
<text xml:space="preserve" x="705" y="48" clip-path="url(#clipPath2)" stroke="none">300</text>
<text xml:space="preserve" x="705" y="490" clip-path="url(#clipPath2)" stroke="none">300</text>
<line clip-path="url(#clipPath2)" fill="none" x1="741" x2="741" y1="56" y2="58"/>
<line clip-path="url(#clipPath2)" fill="none" x1="741" x2="741" y1="467" y2="465"/>
<line clip-path="url(#clipPath2)" fill="none" x1="763" x2="763" y1="56" y2="58"/>
<line clip-path="url(#clipPath2)" fill="none" x1="763" x2="763" y1="467" y2="465"/>
<line clip-path="url(#clipPath2)" fill="none" x1="785" x2="785" y1="56" y2="58"/>
<line clip-path="url(#clipPath2)" fill="none" x1="785" x2="785" y1="467" y2="465"/>
<line clip-path="url(#clipPath2)" fill="none" x1="807" x2="807" y1="56" y2="58"/>
<line clip-path="url(#clipPath2)" fill="none" x1="807" x2="807" y1="467" y2="465"/>
<line clip-path="url(#clipPath2)" fill="none" x1="829" x2="829" y1="54" y2="58"/>
<line clip-path="url(#clipPath2)" fill="none" x1="829" x2="829" y1="469" y2="465"/>
<text xml:space="preserve" x="815" y="48" clip-path="url(#clipPath2)" stroke="none">350</text>
<text xml:space="preserve" x="815" y="490" clip-path="url(#clipPath2)" stroke="none">350</text>
<line clip-path="url(#clipPath2)" fill="none" x1="851" x2="851" y1="56" y2="58"/>
<line clip-path="url(#clipPath2)" fill="none" x1="851" x2="851" y1="467" y2="465"/>
<line clip-path="url(#clipPath2)" fill="none" x1="873" x2="873" y1="56" y2="58"/>
<line clip-path="url(#clipPath2)" fill="none" x1="873" x2="873" y1="467" y2="465"/>
<line clip-path="url(#clipPath2)" fill="none" x1="895" x2="895" y1="56" y2="58"/>
<line clip-path="url(#clipPath2)" fill="none" x1="895" x2="895" y1="467" y2="465"/>
<line clip-path="url(#clipPath2)" fill="none" x1="917" x2="917" y1="56" y2="58"/>
<line clip-path="url(#clipPath2)" fill="none" x1="917" x2="917" y1="467" y2="465"/>
<line clip-path="url(#clipPath2)" fill="none" x1="938" x2="938" y1="54" y2="58"/>
<line clip-path="url(#clipPath2)" fill="none" x1="938" x2="938" y1="469" y2="465"/>
<text xml:space="preserve" x="924" y="48" clip-path="url(#clipPath2)" stroke="none">400</text>
<text xml:space="preserve" x="924" y="490" clip-path="url(#clipPath2)" stroke="none">400</text>
<line clip-path="url(#clipPath2)" fill="none" x1="960" x2="960" y1="56" y2="58"/>
<line clip-path="url(#clipPath2)" fill="none" x1="960" x2="960" y1="467" y2="465"/>
<line clip-path="url(#clipPath2)" fill="none" x1="982" x2="982" y1="56" y2="58"/>
<line clip-path="url(#clipPath2)" fill="none" x1="982" x2="982" y1="467" y2="465"/>
<line clip-path="url(#clipPath2)" fill="none" x1="1004" x2="1004" y1="56" y2="58"/>
<line clip-path="url(#clipPath2)" fill="none" x1="1004" x2="1004" y1="467" y2="465"/>
<line clip-path="url(#clipPath2)" fill="none" x1="1026" x2="1026" y1="56" y2="58"/>
<line clip-path="url(#clipPath2)" fill="none" x1="1026" x2="1026" y1="467" y2="465"/>
<line clip-path="url(#clipPath2)" fill="none" x1="1048" x2="1048" y1="54" y2="58"/>
<line clip-path="url(#clipPath2)" fill="none" x1="1048" x2="1048" y1="469" y2="465"/>
<text xml:space="preserve" x="1034" y="48" clip-path="url(#clipPath2)" stroke="none">450</text>
<text xml:space="preserve" x="1034" y="490" clip-path="url(#clipPath2)" stroke="none">450</text>
<line clip-path="url(#clipPath2)" fill="none" x1="1070" x2="1070" y1="56" y2="58"/>
<line clip-path="url(#clipPath2)" fill="none" x1="1070" x2="1070" y1="467" y2="465"/>
<line clip-path="url(#clipPath2)" fill="none" x1="1092" x2="1092" y1="56" y2="58"/>
<line clip-path="url(#clipPath2)" fill="none" x1="1092" x2="1092" y1="467" y2="465"/>
<line clip-path="url(#clipPath2)" fill="none" x1="1114" x2="1114" y1="56" y2="58"/>
<line clip-path="url(#clipPath2)" fill="none" x1="1114" x2="1114" y1="467" y2="465"/>
<line clip-path="url(#clipPath2)" fill="none" x1="1136" x2="1136" y1="56" y2="58"/>
<line clip-path="url(#clipPath2)" fill="none" x1="1136" x2="1136" y1="467" y2="465"/>
<line clip-path="url(#clipPath2)" fill="none" x1="1158" x2="1158" y1="54" y2="58"/>
<line clip-path="url(#clipPath2)" fill="none" x1="1158" x2="1158" y1="469" y2="465"/>
<text xml:space="preserve" x="1144" y="48" clip-path="url(#clipPath2)" stroke="none">500</text>
<text xml:space="preserve" x="1144" y="490" clip-path="url(#clipPath2)" stroke="none">500</text>
<line clip-path="url(#clipPath2)" fill="none" x1="1180" x2="1180" y1="56" y2="58"/>
<line clip-path="url(#clipPath2)" fill="none" x1="1180" x2="1180" y1="467" y2="465"/>
<line clip-path="url(#clipPath2)" fill="none" x1="1202" x2="1202" y1="56" y2="58"/>
<line clip-path="url(#clipPath2)" fill="none" x1="1202" x2="1202" y1="467" y2="465"/>
<line clip-path="url(#clipPath2)" fill="none" x1="1224" x2="1224" y1="56" y2="58"/>
<line clip-path="url(#clipPath2)" fill="none" x1="1224" x2="1224" y1="467" y2="465"/>
<line clip-path="url(#clipPath2)" fill="none" x1="58" x2="58" y1="60" y2="463"/>
<line clip-path="url(#clipPath2)" fill="none" x1="1237" x2="1237" y1="60" y2="463"/>
<line clip-path="url(#clipPath2)" fill="none" x1="54" x2="58" y1="463" y2="463"/>
<line clip-path="url(#clipPath2)" fill="none" x1="1241" x2="1237" y1="463" y2="463"/>
<text xml:space="preserve" x="43" y="471" clip-path="url(#clipPath2)" stroke="none">0</text>
<text xml:space="preserve" x="1244" y="471" clip-path="url(#clipPath2)" stroke="none">0</text>
<line clip-path="url(#clipPath2)" fill="none" x1="56" x2="58" y1="448" y2="448"/>
<line clip-path="url(#clipPath2)" fill="none" x1="1239" x2="1237" y1="448" y2="448"/>
<line clip-path="url(#clipPath2)" fill="none" x1="56" x2="58" y1="434" y2="434"/>
<line clip-path="url(#clipPath2)" fill="none" x1="1239" x2="1237" y1="434" y2="434"/>
<line clip-path="url(#clipPath2)" fill="none" x1="56" x2="58" y1="419" y2="419"/>
<line clip-path="url(#clipPath2)" fill="none" x1="1239" x2="1237" y1="419" y2="419"/>
<line clip-path="url(#clipPath2)" fill="none" x1="56" x2="58" y1="405" y2="405"/>
<line clip-path="url(#clipPath2)" fill="none" x1="1239" x2="1237" y1="405" y2="405"/>
<line clip-path="url(#clipPath2)" fill="none" x1="54" x2="58" y1="391" y2="391"/>
<line clip-path="url(#clipPath2)" fill="none" x1="1241" x2="1237" y1="391" y2="391"/>
<text xml:space="preserve" x="43" y="399" clip-path="url(#clipPath2)" stroke="none">5</text>
<text xml:space="preserve" x="1244" y="399" clip-path="url(#clipPath2)" stroke="none">5</text>
<line clip-path="url(#clipPath2)" fill="none" x1="56" x2="58" y1="376" y2="376"/>
<line clip-path="url(#clipPath2)" fill="none" x1="1239" x2="1237" y1="376" y2="376"/>
<line clip-path="url(#clipPath2)" fill="none" x1="56" x2="58" y1="362" y2="362"/>
<line clip-path="url(#clipPath2)" fill="none" x1="1239" x2="1237" y1="362" y2="362"/>
<line clip-path="url(#clipPath2)" fill="none" x1="56" x2="58" y1="347" y2="347"/>
<line clip-path="url(#clipPath2)" fill="none" x1="1239" x2="1237" y1="347" y2="347"/>
<line clip-path="url(#clipPath2)" fill="none" x1="56" x2="58" y1="333" y2="333"/>
<line clip-path="url(#clipPath2)" fill="none" x1="1239" x2="1237" y1="333" y2="333"/>
<line clip-path="url(#clipPath2)" fill="none" x1="54" x2="58" y1="319" y2="319"/>
<line clip-path="url(#clipPath2)" fill="none" x1="1241" x2="1237" y1="319" y2="319"/>
<text xml:space="preserve" x="33" y="327" clip-path="url(#clipPath2)" stroke="none">10</text>
<text xml:space="preserve" x="1244" y="327" clip-path="url(#clipPath2)" stroke="none">10</text>
<line clip-path="url(#clipPath2)" fill="none" x1="56" x2="58" y1="304" y2="304"/>
<line clip-path="url(#clipPath2)" fill="none" x1="1239" x2="1237" y1="304" y2="304"/>
<line clip-path="url(#clipPath2)" fill="none" x1="56" x2="58" y1="290" y2="290"/>
<line clip-path="url(#clipPath2)" fill="none" x1="1239" x2="1237" y1="290" y2="290"/>
<line clip-path="url(#clipPath2)" fill="none" x1="56" x2="58" y1="275" y2="275"/>
<line clip-path="url(#clipPath2)" fill="none" x1="1239" x2="1237" y1="275" y2="275"/>
<line clip-path="url(#clipPath2)" fill="none" x1="56" x2="58" y1="261" y2="261"/>
<line clip-path="url(#clipPath2)" fill="none" x1="1239" x2="1237" y1="261" y2="261"/>
<line clip-path="url(#clipPath2)" fill="none" x1="54" x2="58" y1="247" y2="247"/>
<line clip-path="url(#clipPath2)" fill="none" x1="1241" x2="1237" y1="247" y2="247"/>
<text xml:space="preserve" x="33" y="255" clip-path="url(#clipPath2)" stroke="none">15</text>
<text xml:space="preserve" x="1244" y="255" clip-path="url(#clipPath2)" stroke="none">15</text>
<line clip-path="url(#clipPath2)" fill="none" x1="56" x2="58" y1="232" y2="232"/>
<line clip-path="url(#clipPath2)" fill="none" x1="1239" x2="1237" y1="232" y2="232"/>
<line clip-path="url(#clipPath2)" fill="none" x1="56" x2="58" y1="218" y2="218"/>
<line clip-path="url(#clipPath2)" fill="none" x1="1239" x2="1237" y1="218" y2="218"/>
<line clip-path="url(#clipPath2)" fill="none" x1="56" x2="58" y1="203" y2="203"/>
<line clip-path="url(#clipPath2)" fill="none" x1="1239" x2="1237" y1="203" y2="203"/>
<line clip-path="url(#clipPath2)" fill="none" x1="56" x2="58" y1="189" y2="189"/>
<line clip-path="url(#clipPath2)" fill="none" x1="1239" x2="1237" y1="189" y2="189"/>
<line clip-path="url(#clipPath2)" fill="none" x1="54" x2="58" y1="175" y2="175"/>
<line clip-path="url(#clipPath2)" fill="none" x1="1241" x2="1237" y1="175" y2="175"/>
<text xml:space="preserve" x="33" y="183" clip-path="url(#clipPath2)" stroke="none">20</text>
<text xml:space="preserve" x="1244" y="183" clip-path="url(#clipPath2)" stroke="none">20</text>
<line clip-path="url(#clipPath2)" fill="none" x1="56" x2="58" y1="160" y2="160"/>
<line clip-path="url(#clipPath2)" fill="none" x1="1239" x2="1237" y1="160" y2="160"/>
<line clip-path="url(#clipPath2)" fill="none" x1="56" x2="58" y1="146" y2="146"/>
<line clip-path="url(#clipPath2)" fill="none" x1="1239" x2="1237" y1="146" y2="146"/>
<line clip-path="url(#clipPath2)" fill="none" x1="56" x2="58" y1="131" y2="131"/>
<line clip-path="url(#clipPath2)" fill="none" x1="1239" x2="1237" y1="131" y2="131"/>
<line clip-path="url(#clipPath2)" fill="none" x1="56" x2="58" y1="117" y2="117"/>
<line clip-path="url(#clipPath2)" fill="none" x1="1239" x2="1237" y1="117" y2="117"/>
<line clip-path="url(#clipPath2)" fill="none" x1="54" x2="58" y1="103" y2="103"/>
<line clip-path="url(#clipPath2)" fill="none" x1="1241" x2="1237" y1="103" y2="103"/>
<text xml:space="preserve" x="33" y="111" clip-path="url(#clipPath2)" stroke="none">25</text>
<text xml:space="preserve" x="1244" y="111" clip-path="url(#clipPath2)" stroke="none">25</text>
<line clip-path="url(#clipPath2)" fill="none" x1="56" x2="58" y1="88" y2="88"/>
<line clip-path="url(#clipPath2)" fill="none" x1="1239" x2="1237" y1="88" y2="88"/>
<line clip-path="url(#clipPath2)" fill="none" x1="56" x2="58" y1="74" y2="74"/>
<line clip-path="url(#clipPath2)" fill="none" x1="1239" x2="1237" y1="74" y2="74"/>
<line clip-path="url(#clipPath2)" fill="none" x1="56" x2="58" y1="60" y2="60"/>
<line clip-path="url(#clipPath2)" fill="none" x1="1239" x2="1237" y1="60" y2="60"/>
</g>
</g>
</svg>
